<svg width="17" height="17" viewBox="0 0 17 17" fill="none" xmlns="http://www.w3.org/2000/svg">
<path d="M0.833374 9.99998H3.33337C3.7754 9.99998 4.19932 10.1756 4.51189 10.4881C4.82445 10.8007 5.00004 11.2246 5.00004 11.6666V14.1666C5.00004 14.6087 4.82445 15.0326 4.51189 15.3452C4.19932 15.6577 3.7754 15.8333 3.33337 15.8333H2.50004C2.05801 15.8333 1.63409 15.6577 1.32153 15.3452C1.00897 15.0326 0.833374 14.6087 0.833374 14.1666V8.33331C0.833374 6.34419 1.62355 4.43653 3.03007 3.03001C4.4366 1.62349 6.34425 0.833313 8.33337 0.833313C10.3225 0.833313 12.2302 1.62349 13.6367 3.03001C15.0432 4.43653 15.8334 6.34419 15.8334 8.33331V14.1666C15.8334 14.6087 15.6578 15.0326 15.3452 15.3452C15.0327 15.6577 14.6087 15.8333 14.1667 15.8333H13.3334C12.8913 15.8333 12.4674 15.6577 12.1549 15.3452C11.8423 15.0326 11.6667 14.6087 11.6667 14.1666V11.6666C11.6667 11.2246 11.8423 10.8007 12.1549 10.4881C12.4674 10.1756 12.8913 9.99998 13.3334 9.99998H15.8334" stroke="white" stroke-width="1.66667" stroke-linecap="round" stroke-linejoin="round"/>
</svg>
