<svg width="20" height="20" viewBox="0 0 20 20" fill="none" xmlns="http://www.w3.org/2000/svg">
<path d="M15 4.16669C15.442 4.16669 15.8659 4.34228 16.1785 4.65484C16.491 4.9674 16.6666 5.39133 16.6666 5.83335V12.9384C16.6665 13.1979 16.727 13.4538 16.8433 13.6859L17.7333 15.4584C17.7976 15.5858 17.828 15.7277 17.8216 15.8703C17.8153 16.0129 17.7725 16.1515 17.6972 16.2728C17.6219 16.3941 17.5167 16.4941 17.3917 16.563C17.2667 16.632 17.1261 16.6677 16.9833 16.6667H3.01664C2.87388 16.6677 2.73326 16.632 2.60826 16.563C2.48326 16.4941 2.37808 16.3941 2.30279 16.2728C2.2275 16.1515 2.18464 16.0129 2.17831 15.8703C2.17198 15.7277 2.2024 15.5858 2.26664 15.4584L3.15664 13.6859C3.27293 13.4538 3.33342 13.1979 3.33331 12.9384V5.83335C3.33331 5.39133 3.5089 4.9674 3.82147 4.65484C4.13403 4.34228 4.55795 4.16669 4.99998 4.16669H15Z" stroke="white" stroke-width="1.66667" stroke-linecap="round" stroke-linejoin="round"/>
<path d="M16.7117 13.3225H3.28833" stroke="white" stroke-width="1.66667" stroke-linecap="round" stroke-linejoin="round"/>
</svg>
