<svg width="20" height="20" viewBox="0 0 20 20" fill="none" xmlns="http://www.w3.org/2000/svg">
<path d="M10 8.33331V10.1666L11.3333 11" stroke="white" stroke-width="1.66667" stroke-linecap="round" stroke-linejoin="round"/>
<path d="M13.4417 6.38335L12.7667 3.00835C12.6905 2.62469 12.4818 2.28006 12.1771 2.03477C11.8724 1.78949 11.4911 1.65919 11.1 1.66669H8.86672C8.47563 1.65919 8.09437 1.78949 7.78967 2.03477C7.48497 2.28006 7.27625 2.62469 7.20005 3.00835L6.55005 6.38335" stroke="white" stroke-width="1.66667" stroke-linecap="round" stroke-linejoin="round"/>
<path d="M6.56665 13.6333L7.23332 16.9667C7.30952 17.3503 7.51824 17.695 7.82294 17.9403C8.12764 18.1855 8.5089 18.3158 8.89998 18.3083H11.1666C11.5577 18.3158 11.939 18.1855 12.2437 17.9403C12.5484 17.695 12.7571 17.3503 12.8333 16.9667L13.5083 13.5917" stroke="white" stroke-width="1.66667" stroke-linecap="round" stroke-linejoin="round"/>
<path d="M10 15C12.7614 15 15 12.7614 15 10C15 7.23858 12.7614 5 10 5C7.23858 5 5 7.23858 5 10C5 12.7614 7.23858 15 10 15Z" stroke="white" stroke-width="1.66667" stroke-linecap="round" stroke-linejoin="round"/>
</svg>
