<svg width="17" height="17" viewBox="0 0 17 17" fill="none" xmlns="http://www.w3.org/2000/svg">
<path d="M6.24344 3.11878C7.24931 1.41459 7.75224 0.5625 8.50416 0.5625C9.25608 0.5625 9.75902 1.41459 10.7649 3.11878L11.0251 3.55967C11.311 4.04395 11.4539 4.28609 11.6767 4.44586C11.8995 4.60562 12.1771 4.66493 12.7321 4.78354L13.2375 4.89152C15.1907 5.30892 16.1674 5.51761 16.3997 6.2233C16.6321 6.92898 15.9663 7.6643 14.6347 9.13494L14.2902 9.51542C13.9118 9.93333 13.7226 10.1423 13.6375 10.4008C13.5523 10.6593 13.5809 10.9381 13.6381 11.4957L13.6902 12.0033C13.8916 13.9654 13.9922 14.9465 13.3839 15.3827C12.7756 15.8188 11.8612 15.4212 10.0323 14.6259L9.55916 14.4201C9.03946 14.1941 8.77961 14.0811 8.50416 14.0811C8.22872 14.0811 7.96887 14.1941 7.44917 14.4201L6.97602 14.6259C5.14717 15.4212 4.23275 15.8188 3.62443 15.3827C3.01611 14.9465 3.11677 13.9655 3.3181 12.0033L3.37018 11.4957C3.42739 10.9381 3.456 10.6593 3.37088 10.4008C3.28576 10.1423 3.09656 9.93333 2.71816 9.51542L2.37365 9.13494C1.04204 7.6643 0.376231 6.92898 0.608587 6.2233C0.840943 5.51761 1.81758 5.30892 3.77086 4.89152L4.27619 4.78354C4.83125 4.66493 5.10878 4.60562 5.33162 4.44586C5.55446 4.28609 5.69738 4.04395 5.98321 3.55968L6.24344 3.11878Z" fill="#F2B705" stroke="#F2B705" stroke-width="1.125"/>
</svg>
