<svg width="26" height="26" viewBox="0 0 26 26" fill="none" xmlns="http://www.w3.org/2000/svg">
<path d="M4.10986 13.0316C4.69179 10.1219 4.98275 8.66706 5.94418 7.73005C6.12187 7.55687 6.31411 7.39927 6.51878 7.25899C7.62614 6.5 9.10979 6.5 12.0771 6.5H13.9219C16.8892 6.5 18.3729 6.5 19.4802 7.25899C19.6849 7.39927 19.8771 7.55687 20.0548 7.73005C21.0162 8.66706 21.3072 10.1219 21.8891 13.0316C22.7246 17.2089 23.1423 19.2976 22.1807 20.7776C22.0066 21.0456 21.8034 21.2935 21.5747 21.5168C20.312 22.75 18.182 22.75 13.9219 22.75H12.0771C7.81701 22.75 5.68697 22.75 4.42427 21.5168C4.19564 21.2935 3.99241 21.0456 3.81829 20.7776C2.85665 19.2976 3.27439 17.2089 4.10986 13.0316Z" stroke="#1D1D1D" stroke-width="1.625"/>
<circle cx="16.25" cy="9.74996" r="1.08333" fill="#1D1D1D"/>
<circle cx="9.74996" cy="9.74996" r="1.08333" fill="#1D1D1D"/>
<path d="M9.75 6.49996V5.41663C9.75 3.6217 11.2051 2.16663 13 2.16663C14.7949 2.16663 16.25 3.6217 16.25 5.41663V6.49996" stroke="#1D1D1D" stroke-width="1.625" stroke-linecap="round"/>
</svg>
