<svg width="20" height="20" viewBox="0 0 20 20" fill="none" xmlns="http://www.w3.org/2000/svg">
<path d="M1.41187 16.9682C1.34123 16.8976 1.3059 16.8623 1.27731 16.8311C0.57423 16.066 0.57423 14.8899 1.27731 14.1247C1.3059 14.0936 1.34123 14.0583 1.41187 13.9876L2.87007 12.5294C3.67212 11.7274 4.88336 11.498 5.92314 11.9512C6.96293 12.4045 8.17416 12.1751 8.97622 11.373L11.373 8.97622C12.1751 8.17417 12.4045 6.96293 11.9512 5.92315C11.498 4.88336 11.7274 3.67212 12.5294 2.87007L13.9876 1.41188C14.0583 1.34123 14.0936 1.30591 14.1247 1.27732C14.8899 0.574237 16.066 0.574237 16.8311 1.27732C16.8623 1.30591 16.8976 1.34123 16.9682 1.41188L17.8546 2.29822C18.5764 3.02001 18.8794 4.06054 18.6579 5.05701C17.1491 11.8466 11.8466 17.1491 5.057 18.6579C4.06054 18.8794 3.02001 18.5764 2.29821 17.8546L1.41187 16.9682Z" stroke="#0A0A0A" stroke-width="1.5"/>
</svg>
