<svg width="24" height="24" viewBox="0 0 24 24" fill="none" xmlns="http://www.w3.org/2000/svg">
<path d="M8.46964 14.4697C8.17675 14.7626 8.17675 15.2374 8.46964 15.5303C8.76253 15.8232 9.23741 15.8232 9.5303 15.5303L8.99997 15L8.46964 14.4697ZM15.1872 9.87347C15.48 9.58058 15.48 9.1057 15.1872 8.81281C14.8943 8.51992 14.4194 8.51992 14.1265 8.81281L14.6568 9.34314L15.1872 9.87347ZM5.59479 5.01898L5.41243 5.74647L5.59479 5.01898ZM9.15682 2.96244L9.87803 3.16826L9.15682 2.96244ZM2.75164 9.94345L2.21279 10.4651L2.75164 9.94345ZM2.75164 14.0565L2.21279 13.5349L2.75164 14.0565ZM5.59479 18.981L5.41243 18.2535L5.59479 18.981ZM9.15682 21.0376L9.87803 20.8317L9.15682 21.0376ZM14.8431 21.0376L14.1219 20.8317L14.8431 21.0376ZM18.4051 18.981L18.5875 18.2535L18.4051 18.981ZM21.2483 14.0565L21.7871 13.5349L21.2483 14.0565ZM21.2483 9.94345L21.7871 10.4651L21.2483 9.94345ZM18.4051 5.01898L18.5875 5.74647L18.4051 5.01898ZM14.8431 2.96244L14.1219 3.16826L14.8431 2.96244ZM8.99997 15L9.5303 15.5303L15.1872 9.87347L14.6568 9.34314L14.1265 8.81281L8.46964 14.4697L8.99997 15ZM5.59479 5.01898L5.41243 5.74647C7.3528 6.23285 9.32906 5.09185 9.87803 3.16826L9.15682 2.96244L8.43561 2.75661C8.1088 3.90177 6.93229 4.58103 5.77714 4.29148L5.59479 5.01898ZM2.75164 9.94345L3.29049 9.42178C1.74633 7.82677 3.25904 5.20669 5.41243 5.74647L5.59479 5.01898L5.77714 4.29148C2.15995 3.38479 -0.381026 7.78589 2.21279 10.4651L2.75164 9.94345ZM2.75164 14.0565L3.29049 14.5782C4.68189 13.141 4.68189 10.859 3.29049 9.42178L2.75164 9.94345L2.21279 10.4651C3.04112 11.3207 3.04112 12.6793 2.21279 13.5349L2.75164 14.0565ZM5.59479 18.981L5.41243 18.2535C3.25903 18.7933 1.74633 16.1732 3.29049 14.5782L2.75164 14.0565L2.21279 13.5349C-0.381027 16.2141 2.15995 20.6152 5.77714 19.7085L5.59479 18.981ZM9.15682 21.0376L9.87803 20.8317C9.32906 18.9081 7.3528 17.7671 5.41243 18.2535L5.59479 18.981L5.77714 19.7085C6.93229 19.419 8.1088 20.0982 8.43561 21.2434L9.15682 21.0376ZM14.8431 21.0376L14.1219 20.8317C13.5127 22.9665 10.4873 22.9665 9.87803 20.8317L9.15682 21.0376L8.43561 21.2434C9.45899 24.8293 14.5409 24.8293 15.5643 21.2434L14.8431 21.0376ZM18.4051 18.981L18.5875 18.2535C16.6471 17.7671 14.6709 18.9081 14.1219 20.8317L14.8431 21.0376L15.5643 21.2434C15.8911 20.0982 17.0676 19.419 18.2228 19.7085L18.4051 18.981ZM21.2483 14.0565L20.7094 14.5782C22.2536 16.1732 20.7409 18.7933 18.5875 18.2535L18.4051 18.981L18.2228 19.7085C21.84 20.6152 24.381 16.2141 21.7871 13.5349L21.2483 14.0565ZM21.2483 9.94345L20.7094 9.42178C19.3181 10.859 19.3181 13.141 20.7094 14.5782L21.2483 14.0565L21.7871 13.5349C20.9588 12.6793 20.9588 11.3207 21.7871 10.4651L21.2483 9.94345ZM18.4051 5.01898L18.5875 5.74647C20.7409 5.20669 22.2536 7.82677 20.7094 9.42178L21.2483 9.94345L21.7871 10.4651C24.381 7.78589 21.84 3.38479 18.2228 4.29148L18.4051 5.01898ZM14.8431 2.96244L14.1219 3.16826C14.6709 5.09185 16.6471 6.23285 18.5875 5.74647L18.4051 5.01898L18.2228 4.29148C17.0676 4.58103 15.8911 3.90177 15.5643 2.75661L14.8431 2.96244ZM14.8431 2.96244L15.5643 2.75661C14.5409 -0.829312 9.45899 -0.829312 8.43561 2.75661L9.15682 2.96244L9.87803 3.16826C10.4873 1.03347 13.5127 1.03347 14.1219 3.16826L14.8431 2.96244Z" fill="#0A0A0A"/>
<path d="M8 9.00003C8 9.55232 8.44772 10 9 10C9.55228 10 10 9.55232 10 9.00003C10 8.44775 9.55228 8.00003 9 8.00003C8.44772 8.00003 8 8.44775 8 9.00003Z" fill="#0A0A0A"/>
<path d="M14 15C14 15.5523 14.4477 16 15 16C15.5523 16 16 15.5523 16 15C16 14.4477 15.5523 14 15 14C14.4477 14 14 14.4477 14 15Z" fill="#0A0A0A"/>
</svg>
