<svg width="24" height="17" viewBox="0 0 24 17" fill="none" xmlns="http://www.w3.org/2000/svg">
<path d="M22.0069 7.30456C22.6282 7.30456 23.1319 7.80824 23.1319 8.42956C23.1319 9.05088 22.6282 9.55456 22.0069 9.55456L22.0069 8.42956L22.0069 7.30456ZM12.7069 9.55456C12.0856 9.55456 11.5819 9.05088 11.5819 8.42956C11.5819 7.80824 12.0856 7.30456 12.7069 7.30456V8.42956V9.55456ZM12.7069 4.1326L13.8319 4.1326V4.1326H12.7069ZM7.87691 1.75538L7.19067 0.863927V0.863927L7.87691 1.75538ZM7.87691 15.1037L7.19067 15.9952L7.87691 15.1037ZM12.7069 12.7265H11.5819H12.7069ZM2.29499 10.8068L2.98124 9.91533L2.29499 10.8068ZM2.29499 6.05235L2.98124 6.94381V6.94381L2.29499 6.05235ZM22.0069 8.42956L22.0069 9.55456L12.7069 9.55456V8.42956V7.30456L22.0069 7.30456L22.0069 8.42956ZM2.29499 10.8068L2.98124 9.91533L8.56316 14.2123L7.87691 15.1037L7.19067 15.9952L1.60875 11.6982L2.29499 10.8068ZM12.7069 12.7265H11.5819V4.1326H12.7069H13.8319V12.7265H12.7069ZM7.87691 1.75538L8.56316 2.64684L2.98124 6.94381L2.29499 6.05235L1.60875 5.16089L7.19067 0.863927L7.87691 1.75538ZM12.7069 4.1326H11.5819C11.5819 2.57665 9.7961 1.69772 8.56316 2.64684L7.87691 1.75538L7.19067 0.863927C9.90314 -1.22413 13.8319 0.709511 13.8319 4.1326L12.7069 4.1326ZM7.87691 15.1037L8.56316 14.2123C9.7961 15.1614 11.5819 14.2825 11.5819 12.7265H12.7069H13.8319C13.8319 16.1496 9.90314 18.0833 7.19067 15.9952L7.87691 15.1037ZM2.29499 10.8068L1.60875 11.6982C-0.536282 10.047 -0.53628 6.81214 1.60875 5.16089L2.29499 6.05235L2.98124 6.94381C2.00622 7.69437 2.00622 9.16476 2.98124 9.91533L2.29499 10.8068Z" fill="#0968F6"/>
</svg>
